<?xml version="1.0" encoding="UTF-8" standalone="no"?>
<svg
   xmlns:dc="http://purl.org/dc/elements/1.1/"
   xmlns:cc="http://creativecommons.org/ns#"
   xmlns:rdf="http://www.w3.org/1999/02/22-rdf-syntax-ns#"
   xmlns:svg="http://www.w3.org/2000/svg"
   xmlns="http://www.w3.org/2000/svg"
   id="svg8"
   preserveAspectRatio="xMidYMid meet"
   viewBox="0 0 16.000000 16.000000"
   height="16.000000pt"
   width="16.000000pt"
   version="1.0">
  <defs
     id="defs12" />
  <metadata
     id="metadata2">
Created by potrace 1.11, written by Peter Selinger 2001-2013
<rdf:RDF>
  <cc:Work
     rdf:about="">
    <dc:format>image/svg+xml</dc:format>
    <dc:type
       rdf:resource="http://purl.org/dc/dcmitype/StillImage" />
    <dc:title></dc:title>
  </cc:Work>
</rdf:RDF>
</metadata>
  <g
     style="fill:#000000;fill-opacity:1"
     transform="matrix(0.12005773,0,0,0.12005773,-14.723912,-15.733994)"
     id="g247">
    <path
       style="fill:#000000;fill-opacity:1;stroke-width:0.30144641"
       id="path235"
       d="m 142.3072,187.29403 v 16.75017 h -2.1246 v -2.87882 c -0.90313,1.09817 -1.91659,1.92444 -3.04069,2.4788 -1.12409,0.55406 -2.35309,0.83139 -3.68699,0.83139 -2.37087,0 -4.39539,-0.85973 -6.07354,-2.57888 -1.67785,-1.71915 -2.51738,-3.81058 -2.51738,-6.2737 0,-2.41187 0.84706,-4.47497 2.54059,-6.189 1.69322,-1.71402 3.7307,-2.57103 6.11183,-2.57103 1.3752,0 2.61957,0.2924 3.73341,0.87751 1.11354,0.5848 2.09144,1.46262 2.93277,2.63253 v -3.07928 h 2.1246 z m -8.61414,1.6474 c -1.19945,0 -2.30636,0.29481 -3.32163,0.88444 -1.01528,0.58963 -1.82255,1.41771 -2.42213,2.48392 -0.59957,1.06622 -0.89921,2.19393 -0.89921,3.38283 0,1.17896 0.30235,2.30667 0.90735,3.38314 0.6047,1.07646 1.4171,1.91479 2.4372,2.51436 1.02009,0.59988 2.11464,0.89952 3.28335,0.89952 1.17896,0 2.29642,-0.29723 3.35239,-0.89198 1.05596,-0.59476 1.86806,-1.39932 2.43719,-2.41429 0.56913,-1.01466 0.8537,-2.15775 0.8537,-3.42925 0,-1.9377 -0.63816,-3.55737 -1.91479,-4.85962 -1.27632,-1.30195 -2.84746,-1.95307 -4.71342,-1.95307 z" />
    <path
       style="fill:#000000;fill-opacity:1;stroke-width:0.30144641"
       id="path237"
       d="m 144.9542,187.29403 h 2.15534 v 3.07927 c 0.85098,-1.17021 1.83008,-2.04772 2.9376,-2.63253 1.10751,-0.58511 2.34284,-0.87751 3.70658,-0.87751 2.37871,0 4.41408,0.85701 6.1058,2.57104 1.69171,1.71402 2.53787,3.77712 2.53787,6.18899 0,2.46342 -0.83832,4.55456 -2.51496,6.2737 -1.67635,1.71915 -3.69875,2.57888 -6.06721,2.57888 -1.3333,0 -2.55808,-0.27733 -3.67584,-0.83139 -1.11746,-0.55436 -2.12791,-1.38063 -3.02984,-2.47879 v 9.00631 h -2.15534 z m 8.62137,1.6474 c -1.86385,0 -3.43288,0.65112 -4.70769,1.95307 -1.27482,1.30225 -1.91238,2.92192 -1.91238,4.85962 0,1.2715 0.28396,2.41459 0.85249,3.42925 0.56823,1.01497 1.38213,1.81953 2.44232,2.41429 1.05989,0.59475 2.17855,0.89198 3.3563,0.89198 1.15696,0 2.24457,-0.29964 3.26376,-0.89952 1.01889,-0.59957 1.83039,-1.4379 2.43449,-2.51436 0.60409,-1.07617 0.90614,-2.20418 0.90614,-3.38314 0,-1.1889 -0.29963,-2.31691 -0.89831,-3.38283 -0.59897,-1.06621 -1.40534,-1.89429 -2.4191,-2.48392 -1.01377,-0.58963 -2.12008,-0.88444 -3.31802,-0.88444 z" />
    <path
       style="fill:#000000;fill-opacity:1;stroke-width:0.30144641"
       id="path239"
       d="m 164.55666,187.29403 h 2.15534 v 3.07927 c 0.85098,-1.17021 1.83008,-2.04772 2.93759,-2.63253 1.10752,-0.58511 2.34284,-0.87751 3.70659,-0.87751 2.37871,0 4.41408,0.85701 6.1058,2.57104 1.69171,1.71402 2.53787,3.77712 2.53787,6.18899 0,2.46342 -0.83832,4.55456 -2.51497,6.2737 -1.67634,1.71915 -3.69874,2.57888 -6.06721,2.57888 -1.33329,0 -2.55807,-0.27733 -3.67583,-0.83139 -1.11747,-0.55436 -2.12791,-1.38063 -3.02984,-2.47879 v 9.00631 h -2.15534 z m 8.62166,1.6474 c -1.86384,0 -3.43287,0.65112 -4.70768,1.95307 -1.27482,1.30225 -1.91238,2.92192 -1.91238,4.85962 0,1.2715 0.28396,2.41459 0.85249,3.42925 0.56823,1.01497 1.38213,1.81953 2.44232,2.41429 1.05988,0.59475 2.17855,0.89198 3.3563,0.89198 1.15695,0 2.24457,-0.29964 3.26376,-0.89952 1.01889,-0.59957 1.83039,-1.4379 2.43449,-2.51436 0.60409,-1.07617 0.90614,-2.20418 0.90614,-3.38314 0,-1.1889 -0.29963,-2.31691 -0.89831,-3.38283 -0.59897,-1.06621 -1.40534,-1.89429 -2.4191,-2.48392 -1.01407,-0.58963 -2.12038,-0.88444 -3.31803,-0.88444 z" />
    <path
       style="fill:#000000;fill-opacity:1;stroke-width:0.30144641"
       id="path241"
       d="m 184.21066,180.828 h 4.20277 v 13.37186 l 6.18899,-6.90583 h 5.27833 l -7.21602,8.02812 8.07876,8.72235 h -5.21744 l -7.11293,-7.71974 v 7.71974 h -4.20276 V 180.828 Z" />
    <path
       style="fill:#000000;fill-opacity:1;stroke-width:0.30144641"
       id="path243"
       d="m 201.87874,187.29403 h 4.20276 v 1.71673 c 0.95318,-0.80365 1.81622,-1.36223 2.59033,-1.67664 0.77351,-0.31411 1.56541,-0.47116 2.3754,-0.47116 1.66037,0 3.06963,0.57968 4.22748,1.73964 0.97337,0.98543 1.46051,2.44293 1.46051,4.37218 v 11.06942 h -4.15664 v -7.3351 c 0,-1.99889 -0.0898,-3.32646 -0.26889,-3.98271 -0.17936,-0.65625 -0.49196,-1.15574 -0.9372,-1.49939 -0.44524,-0.34365 -0.99568,-0.51487 -1.65102,-0.51487 -0.84978,0 -1.57928,0.28456 -2.1885,0.85339 -0.60923,0.56913 -1.03185,1.35621 -1.26728,2.36093 -0.12299,0.52271 -0.18419,1.65554 -0.18419,3.3979 v 6.72015 h -4.20276 z" />
    <path
       style="fill:#000000;fill-opacity:1;stroke-width:0.30144641"
       id="path245"
       d="m 247.23286,196.16228 6.59112,7.88252 h -5.09957 l -3.8971,-4.5651 -3.91337,4.5651 h -4.88042 l 6.36022,-7.93859 -4.62901,-5.3359 h -11.14568 l -0.008,0.0317 c -1.07888,0.10761 -1.98924,0.54833 -2.72869,1.32636 -0.85852,0.90314 -1.28748,2.0836 -1.28748,3.54109 0,1.4162 0.43408,2.57858 1.30315,3.48683 0.86847,0.90856 1.95579,1.36254 3.26135,1.36254 1.33661,0 2.43418,-0.44885 3.2924,-1.34716 0.85852,-0.89801 1.28778,-2.06551 1.28778,-3.50221 0,-1.34535 -0.38796,-2.45769 -1.15394,-3.34455 H 235.32 c 0.43528,1.06321 0.65383,2.18278 0.65383,3.35993 0,1.57023 -0.39007,3.03315 -1.17021,4.38785 -0.78014,1.3547 -1.86535,2.42755 -3.25623,3.21764 -1.39057,0.79039 -2.8764,1.18559 -4.45688,1.18559 -2.18609,0 -4.12077,-0.75965 -5.80405,-2.27863 -1.91931,-1.74478 -2.87912,-3.92574 -2.87912,-6.5432 0,-2.44292 0.84918,-4.51838 2.54783,-6.22728 1.69865,-1.7089 3.74909,-2.5635 6.15041,-2.5635 0.19474,0 0.38676,0.006 0.57727,0.0175 h 12.18929 l 4.92714,5.90805 4.58711,-5.49416 h 4.88042 z" />
  </g>
</svg>
